<svg width="23" height="24" viewBox="0 0 23 24" fill="none" xmlns="http://www.w3.org/2000/svg">
<rect width="22.1738" height="24" transform="translate(0.148438)" fill="white"/>
<path fill-rule="evenodd" clip-rule="evenodd" d="M6.30869 8.00008C6.30869 12.4445 11.2362 16.4445 11.2362 16.4445C11.2362 16.4445 16.1637 12.4445 16.1637 8.00008C16.1637 5.05457 13.9576 2.66675 11.2362 2.66675C8.51482 2.66675 6.30869 5.05457 6.30869 8.00008ZM11.2362 18.0001C11.2369 18.0001 11.2257 17.9916 11.2038 17.975C10.9562 17.7866 9.33104 16.55 7.81681 14.6667H5.70656C5.29337 14.6667 4.9077 14.8909 4.67953 15.2638L1.41579 20.5972C1.28218 20.8155 1.21094 21.0715 1.21094 21.3334C1.21094 22.0698 1.76247 22.6667 2.44282 22.6667H20.0157C20.2598 22.6667 20.4983 22.5882 20.7011 22.4413C21.2664 22.0316 21.4179 21.2034 21.0393 20.5915L17.7399 15.2582C17.5112 14.8886 17.1273 14.6667 16.7163 14.6667H14.6556C13.1414 16.55 11.5163 17.7866 11.2686 17.975C11.2539 17.9861 11.2441 17.9936 11.2394 17.9974C11.2371 17.9992 11.236 18.0001 11.2362 18.0001ZM6.30869 21.3335V20.0001H16.1637V21.3335H6.30869ZM11.2362 10.0001C12.2567 10.0001 13.084 9.10465 13.084 8.00008C13.084 6.89551 12.2567 6.00008 11.2362 6.00008C10.2157 6.00008 9.38839 6.89551 9.38839 8.00008C9.38839 9.10465 10.2157 10.0001 11.2362 10.0001Z" fill="#616164"/>
</svg>
