<svg width="20" height="20" viewBox="0 0 20 20" fill="none" xmlns="http://www.w3.org/2000/svg">
<path fill-rule="evenodd" clip-rule="evenodd" d="M13.5406 1.86143C14.1266 1.27558 14.9213 0.946472 15.75 0.946472C16.5786 0.946472 17.3733 1.27558 17.9593 1.86143L18.1385 2.0406C18.7244 2.62662 19.0535 3.42133 19.0535 4.24997C19.0535 5.07861 18.7244 5.87332 18.1385 6.45935L16.3291 8.2708L6.06976 18.5291C5.93642 18.6625 5.76936 18.7572 5.58642 18.8031L1.41976 19.8448C1.24519 19.8885 1.06227 19.8862 0.888833 19.8382C0.715394 19.7902 0.557347 19.6981 0.430097 19.5709C0.302847 19.4436 0.210734 19.2856 0.162735 19.1121C0.114737 18.9387 0.11249 18.7558 0.156213 18.5812L1.19788 14.4146C1.24376 14.2316 1.33845 14.0646 1.47184 13.9312L11.7906 3.61247L13.5406 1.86247V1.86143ZM16.4864 3.33435C16.2911 3.13906 16.0262 3.02936 15.75 3.02936C15.4738 3.02936 15.2088 3.13906 15.0135 3.33435L13.9864 4.36143L15.6062 6.0458L16.6656 4.98643C16.8609 4.79109 16.9706 4.52618 16.9706 4.24997C16.9706 3.97376 16.8609 3.70885 16.6656 3.51351L16.4864 3.33435V3.33435ZM14.1323 7.51872L12.5125 5.83539L3.14892 15.2L2.59788 17.4021L4.80101 16.851L14.1333 7.51872H14.1323Z" fill="#201F25"/>
</svg>
